<svg xmlns="http://www.w3.org/2000/svg" width="42.079" height="42.079" viewBox="0 0 42.079 42.079">
  <defs>
    <style>
      .cls-1, .cls-4 {
        fill: #fffdfd;
      }

      .cls-1 {
        stroke-linejoin: round;
      }

      .cls-2 {
        fill: #3f3f3f;
      }

      .cls-2, .cls-3, .cls-4 {
        stroke: #3f3f3f;
      }

      .cls-3 {
        fill: #d05564;
      }

      .cls-5, .cls-6 {
        stroke: none;
      }

      .cls-6 {
        fill: #7db5b1;
      }
    </style>
  </defs>
  <g id="caught_status" transform="translate(1.71 1.709)">
    <g id="Path_14" data-name="Path 14" class="cls-1" transform="translate(1.29 1.29)">
      <path class="cls-5" d="M 18.03967094421387 37.57934188842773 C 15.40249061584473 37.57934188842773 12.8434009552002 37.0625114440918 10.43349075317383 36.0432014465332 C 8.106540679931641 35.05898284912109 6.017040729522705 33.65031051635742 4.22304105758667 31.85630035400391 C 2.429030895233154 30.06230163574219 1.020360946655273 27.97280120849609 0.03614094480872154 25.64585113525391 C -0.9831690788269043 23.23594093322754 -1.499999046325684 20.67685127258301 -1.499999046325684 18.03967094421387 C -1.499999046325684 15.40249061584473 -0.9831690788269043 12.8434009552002 0.03614094480872154 10.43349075317383 C 1.020360946655273 8.106540679931641 2.429030895233154 6.017040729522705 4.22304105758667 4.22304105758667 C 6.017040729522705 2.429030895233154 8.106540679931641 1.020360946655273 10.43349075317383 0.03614094480872154 C 12.8434009552002 -0.9831690788269043 15.40249061584473 -1.499999046325684 18.03967094421387 -1.499999046325684 C 20.67685127258301 -1.499999046325684 23.23594093322754 -0.9831690788269043 25.64585113525391 0.03614094480872154 C 27.97280120849609 1.020360946655273 30.06230163574219 2.429030895233154 31.85630035400391 4.22304105758667 C 33.65031051635742 6.017040729522705 35.05898284912109 8.106540679931641 36.0432014465332 10.43349075317383 C 37.0625114440918 12.8434009552002 37.57934188842773 15.40249061584473 37.57934188842773 18.03967094421387 C 37.57934188842773 20.67685127258301 37.0625114440918 23.23594093322754 36.0432014465332 25.64585113525391 C 35.05898284912109 27.97280120849609 33.65031051635742 30.06230163574219 31.85630035400391 31.85630035400391 C 30.06230163574219 33.65031051635742 27.97280120849609 35.05898284912109 25.64585113525391 36.0432014465332 C 23.23594093322754 37.0625114440918 20.67685127258301 37.57934188842773 18.03967094421387 37.57934188842773 Z"/>
      <path class="cls-6" d="M 18.03967094421387 0 C 8.076641082763672 0 0 8.076641082763672 0 18.03967094421387 C 0 28.00270080566406 8.076641082763672 36.07934188842773 18.03967094421387 36.07934188842773 C 28.00270080566406 36.07934188842773 36.07934188842773 28.00270080566406 36.07934188842773 18.03967094421387 C 36.07934188842773 8.076641082763672 28.00270080566406 0 18.03967094421387 0 M 18.03967094421387 -3 C 20.87869071960449 -3 23.63437080383301 -2.44329833984375 26.23018074035645 -1.345367431640625 C 28.73591995239258 -0.2855186462402344 30.98568153381348 1.231101989746094 32.91696166992188 3.162380218505859 C 34.84823989868164 5.093660354614258 36.36486053466797 7.343420028686523 37.42470932006836 9.849161148071289 C 38.52264022827148 12.44497108459473 39.07934188842773 15.20065116882324 39.07934188842773 18.03967094421387 C 39.07934188842773 20.87869071960449 38.52264022827148 23.63437080383301 37.42470932006836 26.23018074035645 C 36.36486053466797 28.73591995239258 34.84823989868164 30.98568153381348 32.91696166992188 32.91696166992188 C 30.98568153381348 34.84823989868164 28.73591995239258 36.36486053466797 26.23018074035645 37.42470932006836 C 23.63437080383301 38.52264022827148 20.87869071960449 39.07934188842773 18.03967094421387 39.07934188842773 C 15.20065116882324 39.07934188842773 12.44497108459473 38.52264022827148 9.849161148071289 37.42470932006836 C 7.343420028686523 36.36486053466797 5.093660354614258 34.84823989868164 3.162380218505859 32.91696166992188 C 1.231101989746094 30.98568153381348 -0.2855186462402344 28.73591995239258 -1.345367431640625 26.23018074035645 C -2.44329833984375 23.63437080383301 -3 20.87869071960449 -3 18.03967094421387 C -3 15.20065116882324 -2.44329833984375 12.44497108459473 -1.345367431640625 9.849161148071289 C -0.2855186462402344 7.343420028686523 1.231101989746094 5.093660354614258 3.162380218505859 3.162380218505859 C 5.093660354614258 1.231101989746094 7.343420028686523 -0.2855186462402344 9.849161148071289 -1.345367431640625 C 12.44497108459473 -2.44329833984375 15.20065116882324 -3 18.03967094421387 -3 Z"/>
    </g>
    <path id="Path_9" data-name="Path 9" class="cls-2" d="M19.33,38.66A19.33,19.33,0,1,1,38.66,19.33,19.352,19.352,0,0,1,19.33,38.66Zm0-36.078A16.748,16.748,0,1,0,36.078,19.33,16.767,16.767,0,0,0,19.33,2.582Z"/>
    <path id="Path_11" data-name="Path 11" class="cls-3" d="M27.78,9.74A18.04,18.04,0,0,0,9.74,27.78H45.818A18.04,18.04,0,0,0,27.778,9.74Z" transform="translate(-8.45 -8.45)"/>
    <path id="Path_12" data-name="Path 12" class="cls-2" d="M38.66,20.62H0V19.33a19.33,19.33,0,0,1,38.66,0v1.29ZM2.631,18.04h33.4a16.749,16.749,0,0,0-33.4,0Z"/>
    <path id="Path_15" data-name="Path 15" class="cls-4" d="M4.94,0A4.94,4.94,0,1,1,0,4.94,4.94,4.94,0,0,1,4.94,0Z" transform="translate(14.39 14.39)"/>
    <path id="Path_13" data-name="Path 13" class="cls-2" d="M105.11,111.341a6.23,6.23,0,1,1,6.23-6.23A6.238,6.238,0,0,1,105.11,111.341Zm0-9.88a3.648,3.648,0,1,0,3.648,3.648A3.653,3.653,0,0,0,105.11,101.461Z" transform="translate(-85.781 -85.781)"/>
  </g>
</svg>
