<?xml version="1.0" encoding="utf-8"?>
<!-- Generator: Adobe Illustrator 27.2.0, SVG Export Plug-In . SVG Version: 6.00 Build 0)  -->
<svg version="1.1" id="Layer_1" xmlns="http://www.w3.org/2000/svg" xmlns:xlink="http://www.w3.org/1999/xlink" x="0px" y="0px"
	 viewBox="0 0 42.1 42.1" style="enable-background:new 0 0 42.1 42.1;" xml:space="preserve">
<style type="text/css">
	.st0{fill:#D2E4E2;}
	.st1{fill:#B9C94E;}
	.st2{fill:#3F3F3F;}
	.st3{fill:none;stroke:#3F3F3F;}
	.st4{fill:#D2E4E2;stroke:#3F3F3F;}
</style>
<g id="caught_status" transform="translate(1.71 1.709)">
	<g id="Path_14" transform="translate(1.29 1.29)">
		<path class="st0" d="M18,37.6c-2.6,0-5.2-0.5-7.6-1.5c-2.3-1-4.4-2.4-6.2-4.2C2.4,30.1,1,28,0,25.6s-1.5-5-1.5-7.6S-1,12.8,0,10.4
			C1,8.1,2.4,6,4.2,4.2S8.1,1,10.4,0c2.4-1,5-1.5,7.6-1.5S23.2-1,25.6,0c2.3,1,4.4,2.4,6.2,4.2S35,8.1,36,10.4c1,2.4,1.5,5,1.5,7.6
			S37,23.2,36,25.6c-1,2.3-2.4,4.4-4.2,6.2S27.9,35,25.6,36C23.2,37.1,20.7,37.6,18,37.6z"/>
		<path class="st1" d="M18,0C8.1,0,0,8.1,0,18s8.1,18,18,18s18-8.1,18-18S28,0,18,0 M18-3c2.8,0,5.6,0.6,8.2,1.7
			c2.5,1.1,4.8,2.6,6.7,4.5s3.4,4.2,4.5,6.7c1.1,2.6,1.7,5.4,1.7,8.2s-0.6,5.6-1.7,8.2c-1.1,2.5-2.6,4.8-4.5,6.7s-4.2,3.4-6.7,4.5
			c-2.6,1.1-5.4,1.7-8.2,1.7s-5.6-0.6-8.2-1.7C7.3,36.4,5,34.9,3.1,33s-3.4-4.2-4.5-6.7C-2.4,23.6-3,20.9-3,18s0.6-5.6,1.7-8.2
			C-0.2,7.3,1.3,5,3.2,3.1s4.2-3.4,6.7-4.5C12.4-2.4,15.2-3,18-3z"/>
	</g>
	<path id="Path_9" class="st2" d="M19.3,38.7C8.7,38.7,0,30,0,19.3S8.7,0,19.3,0s19.3,8.7,19.3,19.3C38.6,30,30,38.6,19.3,38.7z
		 M19.3,2.6c-9.2,0-16.7,7.5-16.7,16.7S10.1,36,19.3,36S36,28.5,36,19.3l0,0C36.1,10.1,28.6,2.6,19.3,2.6z"/>
	<path id="Path_11" class="st3" d="M19.3,1.3c-10,0-18,8.1-18,18l0,0h36.1C37.4,9.4,29.3,1.3,19.3,1.3L19.3,1.3L19.3,1.3z"/>
	<path id="Path_12" class="st2" d="M38.7,20.6H0v-1.3C0,8.7,8.7,0,19.3,0s19.3,8.7,19.3,19.3C38.7,19.3,38.7,20.6,38.7,20.6z
		 M2.6,18H36C35.3,8.8,27.2,1.9,18,2.6C9.8,3.3,3.3,9.8,2.6,18z"/>
	<path id="Path_15" class="st4" d="M19.3,14.4c2.7,0,4.9,2.2,4.9,4.9s-2.2,4.9-4.9,4.9s-4.9-2.2-4.9-4.9l0,0
		C14.4,16.6,16.6,14.4,19.3,14.4z"/>
	<path id="Path_13" class="st2" d="M19.3,25.6c-3.4,0-6.2-2.8-6.2-6.2s2.8-6.2,6.2-6.2s6.2,2.8,6.2,6.2
		C25.6,22.8,22.8,25.6,19.3,25.6z M19.3,15.7c-2,0-3.6,1.6-3.6,3.6s1.6,3.6,3.6,3.6s3.6-1.6,3.6-3.6C23,17.3,21.3,15.7,19.3,15.7z"
		/>
</g>
</svg>
