<?xml version="1.0" encoding="utf-8"?>
<!-- Generator: Adobe Illustrator 27.2.0, SVG Export Plug-In . SVG Version: 6.00 Build 0)  -->
<svg version="1.1" id="Layer_1" xmlns="http://www.w3.org/2000/svg" xmlns:xlink="http://www.w3.org/1999/xlink" x="0px" y="0px"
	 viewBox="0 0 42.1 42.1" style="enable-background:new 0 0 42.1 42.1;" xml:space="preserve">
<style type="text/css">
	.st0{fill:#D2E4E2;}
	.st1{fill:#3F3F3F;}
	.st2{fill:none;stroke:#3F3F3F;}
</style>
<g id="caught_status" transform="translate(1.71 1.709)">
	<g id="Path_14" transform="translate(1.29 1.29)">
		<path class="st0" d="M18,14.4c-1.6,0-2.9,1-3.4,2.4h6.8C20.9,15.4,19.6,14.4,18,14.4z M36,10.4c-1-2.3-2.4-4.4-4.2-6.2
			C30.1,2.4,28,1,25.7,0c-2.4-1-5-1.5-7.6-1.5c-2.6,0-5.2,0.5-7.6,1.5C8.1,1,6,2.4,4.2,4.2C2.4,6,1,8.1,0,10.4c-1,2.4-1.5,5-1.5,7.6
			S-1,23.2,0,25.6c1,2.3,2.4,4.4,4.2,6.2c1.8,1.8,3.9,3.2,6.2,4.2c2.4,1,5,1.5,7.6,1.5c2.6,0,5.2-0.5,7.6-1.5c2.3-1,4.4-2.4,6.2-4.2
			c1.8-1.8,3.2-3.9,4.2-6.2c1-2.4,1.5-5,1.5-7.6S37.1,12.8,36,10.4z M21.5,19.3h-6.8c-0.2-0.4-0.2-0.8-0.2-1.3
			c0-0.5,0.1-0.9,0.2-1.3h6.8c0.1,0.4,0.2,0.8,0.2,1.3C21.7,18.5,21.6,18.9,21.5,19.3z"/>
	</g>
	<path id="Path_9" class="st1" d="M19.3,0C8.6,0,0,8.7,0,19.3c0,0.4,0,0.9,0,1.3c0.6,10.1,9,18,19.3,18c10.2,0,18.6-8,19.3-18
		c0-0.4,0-0.9,0-1.3C38.7,8.7,30,0,19.3,0z M19.3,36.1c-8.8,0-16-6.8-16.7-15.5c0-0.4-0.1-0.9-0.1-1.3s0-0.9,0.1-1.3
		c0-0.1,0-0.2,0-0.2c0-0.2,0-0.4,0.1-0.6c0-0.2,0.1-0.5,0.1-0.7C2.9,16,3,15.5,3.1,15c0.1-0.4,0.2-0.8,0.4-1.1
		c0.1-0.3,0.2-0.7,0.4-1c0.1-0.2,0.2-0.4,0.2-0.6c0-0.1,0.1-0.2,0.2-0.4c0.1-0.2,0.2-0.4,0.3-0.6c0.1-0.3,0.3-0.5,0.5-0.8
		c0.1-0.2,0.2-0.3,0.3-0.5c0.2-0.2,0.3-0.5,0.5-0.7c0.3-0.4,0.6-0.8,1-1.2c0.2-0.2,0.4-0.4,0.6-0.6C7.7,7.3,7.8,7.2,8,7
		c0,0,0,0,0.1-0.1c0.4-0.4,0.8-0.7,1.2-1C9.5,5.8,9.8,5.6,10,5.4c0.2-0.1,0.4-0.3,0.7-0.4c0,0,0,0,0,0c0.2-0.1,0.4-0.3,0.7-0.4
		c0.5-0.3,0.9-0.5,1.4-0.7c0.1,0,0.1,0,0.2-0.1c0.5-0.2,0.9-0.4,1.4-0.5C14.9,3.2,15.4,3,16,2.9c0.3-0.1,0.6-0.1,0.9-0.2
		c0.2,0,0.5-0.1,0.7-0.1c0.4-0.1,0.9-0.1,1.3-0.1c0.2,0,0.4,0,0.5,0c0.4,0,0.7,0,1.1,0c0.2,0,0.3,0,0.5,0c0.4,0,0.7,0.1,1.1,0.2
		c0.2,0,0.4,0.1,0.5,0.1c0.3,0.1,0.6,0.1,1,0.2c0.2,0.1,0.5,0.1,0.7,0.2c0.2,0.1,0.5,0.2,0.7,0.2c0.2,0.1,0.5,0.2,0.8,0.3
		c0.6,0.3,1.2,0.6,1.8,0.9c0.6,0.3,1.2,0.7,1.7,1.1c0.2,0.2,0.4,0.3,0.6,0.5c0.2,0.2,0.5,0.4,0.7,0.6c0.2,0.2,0.4,0.4,0.7,0.6
		c0.3,0.3,0.6,0.7,0.9,1c0.2,0.2,0.4,0.4,0.5,0.7c0,0,0,0,0,0c0.8,1,1.4,2.1,1.9,3.3c0.2,0.4,0.3,0.7,0.4,1.1
		c0.1,0.2,0.1,0.4,0.2,0.6c0.1,0.3,0.2,0.6,0.3,0.9c0.1,0.5,0.2,1,0.3,1.5c0,0.3,0.1,0.5,0.1,0.8c0,0,0,0.1,0,0.1c0,0.1,0,0.2,0,0.4
		c0,0.4,0.1,0.9,0.1,1.3s0,0.9-0.1,1.3C35.4,29.3,28.1,36.1,19.3,36.1z"/>
	<path class="st2" d="M15.7,19.3h-2.6H2.6H1.3c0-10,8.1-18,18-18s18,8.1,18,18h-1.3H25.6H23"/>
	<path id="Path_12" class="st1" d="M19.3,0C8.6,0,0,8.7,0,19.3v1.3h15.9c-0.2-0.4-0.2-0.8-0.2-1.3c0-0.5,0.1-0.9,0.2-1.3H2.6
		c0-0.1,0-0.2,0-0.2c0-0.2,0-0.4,0.1-0.6c0-0.2,0.1-0.5,0.1-0.7C2.9,16,3,15.5,3.1,15c0.1-0.4,0.2-0.8,0.4-1.1
		c0.1-0.3,0.2-0.7,0.4-1c0.1-0.2,0.2-0.4,0.2-0.6c0-0.1,0.1-0.2,0.2-0.4c0.1-0.2,0.2-0.4,0.3-0.6c0.1-0.3,0.3-0.5,0.5-0.8
		c0.1-0.2,0.2-0.3,0.3-0.5c0.2-0.2,0.3-0.5,0.5-0.7c0.3-0.4,0.6-0.8,1-1.2c0.2-0.2,0.4-0.4,0.6-0.6C7.6,7.3,7.8,7.1,8,7
		c0,0,0,0,0.1-0.1c0.4-0.4,0.8-0.7,1.2-1C9.5,5.7,9.7,5.6,10,5.4c0.2-0.2,0.4-0.3,0.7-0.4c0,0,0,0,0,0c0.2-0.1,0.4-0.3,0.7-0.4
		c0.5-0.3,0.9-0.5,1.4-0.7c0.1,0,0.1,0,0.2-0.1c0.5-0.2,0.9-0.4,1.4-0.5C14.9,3.2,15.4,3,16,2.9c0.3-0.1,0.6-0.1,0.9-0.2
		c0.2,0,0.5-0.1,0.7-0.1c0.1,0,0.3,0,0.4-0.1c1.9-0.1,3.8,0,5.6,0.5c0.2,0.1,0.5,0.1,0.7,0.2c0.2,0.1,0.5,0.2,0.7,0.2
		c0.2,0.1,0.5,0.2,0.8,0.3c0.6,0.3,1.2,0.6,1.8,0.9c0.6,0.3,1.2,0.7,1.7,1.1c0.2,0.1,0.4,0.3,0.6,0.5c0.2,0.2,0.5,0.4,0.7,0.6
		c0.2,0.2,0.4,0.4,0.7,0.6c0.3,0.3,0.6,0.7,0.9,1c0.2,0.2,0.4,0.4,0.5,0.7c0,0,0,0,0,0c0.8,1,1.4,2.1,1.9,3.3
		c0.2,0.4,0.3,0.7,0.4,1.1c0.1,0.2,0.1,0.4,0.2,0.6c0.1,0.3,0.2,0.6,0.3,0.9c0.1,0.5,0.2,1,0.3,1.5c0,0.3,0.1,0.5,0.1,0.8
		c0,0,0,0.1,0,0.1c0,0.1,0,0.2,0,0.4H22.7c0.1,0.4,0.2,0.8,0.2,1.3c0,0.5-0.1,0.9-0.2,1.3h15.9v-1.3C38.7,8.7,30,0,19.3,0z"/>
	<path id="Path_13" class="st1" d="M25.4,18c-0.6-2.8-3.1-4.9-6.1-4.9s-5.5,2.1-6.1,4.9c-0.1,0.4-0.1,0.8-0.1,1.3s0,0.9,0.1,1.3
		c0.6,2.8,3.1,4.9,6.1,4.9c3,0,5.5-2.1,6.1-4.9c0.1-0.4,0.1-0.8,0.1-1.3S25.5,18.5,25.4,18z M19.3,23c-1.6,0-2.9-1-3.4-2.4
		c-0.2-0.4-0.2-0.8-0.2-1.3c0-0.5,0.1-0.9,0.2-1.3c0.5-1.4,1.8-2.4,3.4-2.4s2.9,1,3.4,2.4c0.1,0.4,0.2,0.8,0.2,1.3
		c0,0.5-0.1,0.9-0.2,1.3C22.2,22,20.9,23,19.3,23z"/>
	<path class="st0" d="M23,19.3c0,0.5-0.1,0.9-0.2,1.3h-6.8c-0.2-0.4-0.2-0.8-0.2-1.3c0-0.5,0.1-0.9,0.2-1.3h6.8
		C22.9,18.4,23,18.9,23,19.3z"/>
</g>
</svg>
